<svg xmlns="http://www.w3.org/2000/svg" width="280" height="380" viewBox="0 0 280 380"><rect width="100%" height="100%" fill="#DDDDDD"/><path fill="#999999" d="M66.935 199.125h6.87q.74 0 1.17.41.44.42.44 1.1v2.74h-18.35v-1.52q0-.46.19-.97t.62-.91l8.12-8.14q1.02-1.04 1.82-1.98.81-.95 1.34-1.87.54-.93.83-1.88.28-.95.28-2.01 0-.96-.27-1.69-.28-.73-.79-1.23t-1.22-.75q-.71-.25-1.6-.25-.82 0-1.51.23-.69.23-1.23.65-.54.42-.91.97-.37.56-.55 1.22-.32.85-.81 1.13-.5.28-1.45.13l-2.4-.43q.28-1.92 1.07-3.37.8-1.45 1.99-2.43 1.19-.97 2.74-1.46 1.54-.49 3.32-.49 1.85 0 3.38.55 1.54.54 2.63 1.54 1.09 1 1.7 2.41.61 1.4.61 3.12 0 1.48-.43 2.74-.44 1.26-1.17 2.41-.73 1.15-1.71 2.22-.98 1.07-2.05 2.18l-6.03 6.16q.87-.26 1.73-.4.86-.13 1.63-.13Zm20.91.98q1.13 0 1.98-.33.85-.32 1.43-.9.58-.57.88-1.36.3-.8.3-1.72 0-2.21-1.22-3.33-1.23-1.13-3.37-1.13-2.15 0-3.37 1.13-1.22 1.12-1.22 3.33 0 .92.3 1.72.29.79.88 1.36.58.58 1.43.9.85.33 1.98.33Zm0-20.34q-1.02 0-1.76.32-.74.31-1.23.84t-.72 1.21q-.23.69-.23 1.45 0 .79.19 1.54.2.75.66 1.33.46.58 1.22.94.76.35 1.87.35t1.87-.35q.76-.36 1.22-.94.46-.58.66-1.33.19-.75.19-1.54 0-.76-.24-1.45-.24-.68-.72-1.21-.48-.53-1.22-.84-.74-.32-1.76-.32Zm4.51 9.66q2.44.8 3.61 2.43 1.17 1.64 1.17 4.01 0 1.78-.68 3.22-.67 1.44-1.9 2.46-1.22 1.02-2.93 1.57-1.71.56-3.78.56t-3.78-.56q-1.72-.55-2.94-1.57t-1.89-2.46q-.68-1.44-.68-3.22 0-2.37 1.17-4.01 1.16-1.63 3.6-2.43-1.94-.81-2.91-2.31-.97-1.5-.97-3.61 0-1.52.62-2.83t1.73-2.28q1.11-.98 2.65-1.52 1.55-.55 3.4-.55 1.85 0 3.39.55 1.55.54 2.66 1.52 1.11.97 1.73 2.28.62 1.31.62 2.83 0 2.11-.97 3.61t-2.92 2.31Zm26.75.57q0 3.5-.75 6.08-.74 2.58-2.07 4.27-1.32 1.68-3.12 2.5-1.81.83-3.9.83t-3.87-.83q-1.79-.82-3.1-2.5-1.32-1.69-2.06-4.27-.74-2.58-.74-6.08 0-3.51.74-6.08.74-2.57 2.06-4.26 1.31-1.68 3.1-2.5 1.78-.83 3.87-.83t3.9.83q1.8.82 3.12 2.5 1.33 1.69 2.07 4.26.75 2.57.75 6.08Zm-4.71 0q0-2.9-.43-4.81-.42-1.9-1.14-3.03-.71-1.13-1.63-1.58-.93-.45-1.93-.45-.98 0-1.89.45-.92.45-1.62 1.58-.71 1.13-1.12 3.03-.42 1.91-.42 4.81 0 2.91.42 4.81.41 1.91 1.12 3.04.7 1.13 1.62 1.58.91.45 1.89.45 1 0 1.93-.45.92-.45 1.63-1.58.72-1.13 1.14-3.04.43-1.9.43-4.81Zm34.09 7.26-2.42 2.38-6.27-6.27-6.33 6.31-2.42-2.39 6.32-6.34-6.03-6.03 2.41-2.41 6.03 6.03 5.99-5.99 2.44 2.4-6.01 6.02 6.29 6.29Zm15.39-12.75-2.4-.43q.28-1.92 1.07-3.37.8-1.45 1.99-2.43 1.19-.97 2.74-1.46 1.54-.49 3.32-.49 1.85 0 3.34.53 1.49.53 2.54 1.46 1.06.94 1.62 2.19.57 1.26.57 2.72 0 1.28-.29 2.25t-.82 1.69q-.54.73-1.34 1.23-.79.49-1.79.83 2.4.76 3.59 2.31 1.18 1.55 1.18 3.9 0 2-.74 3.54-.74 1.53-2 2.58-1.25 1.04-2.91 1.58-1.66.54-3.51.54-2.01 0-3.51-.47-1.5-.46-2.61-1.37-1.11-.9-1.89-2.22-.77-1.31-1.33-3.03l2.02-.83q.79-.33 1.49-.18.69.16 1.01.75.33.65.73 1.28.39.63.95 1.12.55.49 1.3.79.75.31 1.79.31 1.16 0 2.03-.38.87-.38 1.46-.99.58-.61.87-1.36.28-.75.28-1.51 0-.96-.2-1.75-.2-.78-.85-1.34-.65-.55-1.86-.87-1.21-.31-3.25-.31v-3.26q1.69-.02 2.8-.31 1.11-.3 1.76-.83.66-.52.92-1.26t.26-1.63q0-1.89-1.06-2.87-1.05-.98-2.81-.98-.81 0-1.5.23-.68.23-1.23.65-.54.42-.91.97-.37.56-.56 1.22-.31.85-.82 1.13-.51.28-1.44.13Zm27.79 15.6q1.13 0 1.98-.33.85-.32 1.43-.9.59-.57.88-1.36.3-.8.3-1.72 0-2.21-1.22-3.33-1.22-1.13-3.37-1.13-2.15 0-3.37 1.13-1.22 1.12-1.22 3.33 0 .92.3 1.72.29.79.88 1.36.58.58 1.43.9.85.33 1.98.33Zm0-20.34q-1.02 0-1.76.32-.74.31-1.23.84t-.72 1.21q-.23.69-.23 1.45 0 .79.19 1.54.2.75.66 1.33.46.58 1.22.94.76.35 1.87.35t1.87-.35q.76-.36 1.22-.94.46-.58.66-1.33.19-.75.19-1.54 0-.76-.24-1.45-.24-.68-.72-1.21-.48-.53-1.22-.84-.74-.32-1.76-.32Zm4.51 9.66q2.45.8 3.61 2.43 1.17 1.64 1.17 4.01 0 1.78-.68 3.22-.67 1.44-1.89 2.46-1.22 1.02-2.94 1.57-1.71.56-3.78.56t-3.78-.56q-1.71-.55-2.93-1.57-1.23-1.02-1.9-2.46-.68-1.44-.68-3.22 0-2.37 1.17-4.01 1.16-1.63 3.61-2.43-1.95-.81-2.92-2.31t-.97-3.61q0-1.52.62-2.83t1.73-2.28q1.11-.98 2.66-1.52 1.54-.55 3.39-.55t3.4.55q1.54.54 2.65 1.52 1.11.97 1.73 2.28.62 1.31.62 2.83 0 2.11-.97 3.61t-2.92 2.31Zm26.76.57q0 3.5-.75 6.08t-2.08 4.27q-1.32 1.68-3.12 2.5-1.81.83-3.9.83t-3.87-.83q-1.79-.82-3.1-2.5-1.31-1.69-2.05-4.27-.74-2.58-.74-6.08 0-3.51.74-6.08.74-2.57 2.05-4.26 1.31-1.68 3.1-2.5 1.78-.83 3.87-.83t3.9.83q1.8.82 3.12 2.5 1.33 1.69 2.08 4.26t.75 6.08Zm-4.72 0q0-2.9-.43-4.81-.42-1.9-1.13-3.03-.72-1.13-1.64-1.58-.93-.45-1.93-.45-.98 0-1.89.45-.92.45-1.62 1.58-.7 1.13-1.12 3.03-.42 1.91-.42 4.81 0 2.91.42 4.81.42 1.91 1.12 3.04.7 1.13 1.62 1.58.91.45 1.89.45 1 0 1.93-.45.92-.45 1.64-1.58.71-1.13 1.13-3.04.43-1.9.43-4.81Z"/></svg>