<svg xmlns="http://www.w3.org/2000/svg" width="140" height="60" viewBox="0 0 140 60"><rect width="100%" height="100%" fill="#DDDDDD"/><path fill="#999999" d="M34.455 35.92h2.86v2.03h-8.8v-2.03h3.22v-9.28q0-.55.03-1.13l-2.28 1.91q-.2.16-.39.2-.2.03-.37 0-.17-.03-.3-.11-.13-.09-.2-.19l-.86-1.17 4.86-4.13h2.23v13.9Zm7.23-3.96h4.84v-5.21q0-.73.09-1.63l-4.93 6.84Zm7.2 0h2v1.57q0 .22-.14.38t-.41.16h-1.45v3.88h-2.36v-3.88h-6.71q-.28 0-.49-.17-.21-.17-.26-.43l-.29-1.37 7.54-10.07h2.57v9.93ZM63.655 30q0 2.08-.44 3.61-.45 1.54-1.23 2.54-.79 1-1.86 1.49-1.08.49-2.32.49-1.24 0-2.3-.49-1.06-.49-1.85-1.49-.78-1-1.22-2.54-.44-1.53-.44-3.61 0-2.09.44-3.62.44-1.53 1.22-2.53.79-1 1.85-1.49t2.3-.49q1.24 0 2.32.49 1.07.49 1.86 1.49.78 1 1.23 2.53.44 1.53.44 3.62Zm-2.8 0q0-1.73-.25-2.86-.26-1.14-.68-1.81-.42-.67-.97-.94-.55-.27-1.15-.27-.58 0-1.13.27-.54.27-.96.94-.42.67-.66 1.81-.25 1.13-.25 2.86 0 1.72.25 2.86.24 1.13.66 1.8.42.67.96.94.55.27 1.13.27.6 0 1.15-.27.55-.27.97-.94.42-.67.68-1.8.25-1.14.25-2.86Zm20.27 4.31-1.44 1.42-3.73-3.73-3.76 3.75-1.44-1.42 3.76-3.77-3.59-3.59 1.43-1.43 3.59 3.59 3.56-3.57 1.46 1.43-3.58 3.58 3.74 3.74Zm17-12.27-4.72 5.78-.55.68q.46-.23.99-.36.54-.12 1.15-.12.9 0 1.76.29.85.3 1.5.9.65.6 1.04 1.49.4.89.4 2.08 0 1.11-.41 2.08-.4.98-1.14 1.7-.74.73-1.78 1.15-1.04.42-2.29.42-1.28 0-2.29-.41t-1.73-1.14q-.71-.73-1.09-1.76-.38-1.03-.38-2.28 0-1.12.46-2.31.45-1.18 1.41-2.45l3.79-5.1q.2-.26.58-.45.38-.19.88-.19h2.42Zm-4.11 13.86q.65 0 1.2-.22.54-.22.93-.61.39-.4.61-.93.22-.53.22-1.16 0-.68-.21-1.23-.21-.54-.59-.92-.39-.38-.92-.58-.54-.2-1.19-.2-.65 0-1.18.22-.53.22-.9.61-.38.39-.58.93-.21.53-.21 1.15 0 .66.18 1.2.18.55.54.93.35.39.88.6.53.21 1.22.21Zm18.62-5.9q0 2.08-.45 3.61-.45 1.54-1.23 2.54-.79 1-1.86 1.49t-2.32.49q-1.24 0-2.3-.49-1.06-.49-1.84-1.49t-1.22-2.54q-.44-1.53-.44-3.61 0-2.09.44-3.62.44-1.53 1.22-2.53.78-1 1.84-1.49t2.3-.49q1.25 0 2.32.49 1.07.49 1.86 1.49.78 1 1.23 2.53.45 1.53.45 3.62Zm-2.81 0q0-1.73-.25-2.86-.26-1.14-.68-1.81-.42-.67-.97-.94-.55-.27-1.15-.27-.58 0-1.12.27-.55.27-.97.94-.41.67-.66 1.81-.25 1.13-.25 2.86 0 1.72.25 2.86.25 1.13.66 1.8.42.67.97.94.54.27 1.12.27.6 0 1.15-.27.55-.27.97-.94.42-.67.68-1.8.25-1.14.25-2.86Z"/></svg>